# Blender v2.90.1 OBJ File: 'Object1.blend'
# www.blender.org
mtllib Object1.mtl
o Cube
v 9.415490 1.000000 -1.512964
v 9.415490 -1.000000 -1.512964
v 9.415490 1.000000 0.487036
v 9.415490 -1.000000 0.487036
v 7.415490 1.000000 -1.512964
v 7.415490 -1.000000 -1.512964
v -1.000000 1.000000 1.000000
v -1.000000 -1.000000 1.000000
v 9.415490 -1.000000 -7.448790
v 7.415490 -1.000000 -7.448790
v 9.415490 1.000000 -7.448790
v 7.415490 1.000000 -7.448790
v 9.415490 -1.000000 -8.627475
v 7.415490 -1.000000 -8.627475
v 9.415490 1.000000 -8.627475
v 7.415490 1.000000 -8.627475
v 2.628356 1.000000 -8.122859
v 2.628356 -1.000000 -8.122859
v 2.628356 1.000000 -9.301544
v 2.628356 -1.000000 -9.301544
v 7.415490 1.471637 -3.233085
v 9.415490 1.471637 -3.233085
v 7.415490 1.471637 -5.728669
v 9.415490 1.471637 -5.728669
v 4.287324 3.885448 -3.233085
v 6.287324 3.885448 -3.233085
v 4.287324 3.885448 -5.728669
v 6.287324 3.885448 -5.728669
v 9.174809 -2.714122 -1.512964
v 7.656172 -1.412683 -1.512964
v 9.174809 -2.714122 -7.448790
v 7.656172 -1.412683 -7.448790
v 1.492095 -5.102503 -1.512964
v -0.026542 -3.801064 -1.512964
v 1.492095 -5.102503 -7.448790
v -0.026542 -3.801064 -7.448790
v 4.858343 2.002213 -6.666111
v 4.858343 2.002213 -2.295643
v 0.648061 -0.386168 -6.666111
v 0.648061 -0.386168 -2.295643
v 30.133633 -24.932348 -10.930997
v 30.133633 -24.932348 1.969243
v -4.560034 -20.854954 -10.930997
v -4.560034 -20.854954 1.969243
v 29.641745 -40.950703 -10.930997
v 29.641745 -40.950703 1.969243
v -5.051922 -49.810959 -10.930997
v -5.051922 -49.810959 1.969243
v -4.560034 -24.248610 -47.003170
v 28.086163 -24.932348 -40.699596
v -5.051922 -47.734612 -47.003170
v 27.594275 -40.950703 -40.699596
v 28.086163 -24.932348 34.648735
v -4.560034 -24.248610 39.963451
v 27.594275 -40.950703 34.648735
v -5.051922 -47.734612 39.963451
v -123.844666 -18.356668 -10.930997
v -123.844666 -18.356668 1.969243
v -124.336555 -47.312675 -10.930997
v -124.336555 -47.312675 1.969243
v -123.844666 -21.750324 -47.003170
v -124.336555 -45.236328 -47.003170
v -124.336555 -45.236328 39.963451
v -123.844666 -21.750324 39.963451
v -152.639374 -27.202631 -8.731378
v -152.639374 -27.202631 0.074628
v -153.097855 -38.778336 -8.731378
v -153.097855 -38.778336 0.074628
v -152.639374 -27.202631 -33.355087
v -153.097855 -38.778336 -33.355087
v -153.097855 -38.778336 26.010366
v -152.639374 -27.202631 26.010366
v -162.397598 -28.280209 -5.933243
v -162.397598 -28.280209 -2.335510
v -162.856079 -36.927765 -5.933243
v -162.856079 -36.927765 -2.335510
v -162.397598 -28.280209 -15.993370
v -162.856079 -36.927765 -15.993370
v -162.856079 -36.927765 8.260653
v -162.397598 -28.280209 8.260653
v 28.721151 -37.651169 30.260473
v 28.721151 -27.066124 30.260473
v 28.721151 -37.651169 -35.935772
v 28.721151 -27.066124 -35.935772
v 32.928116 -37.651169 30.260473
v 32.928116 -27.066124 30.260473
v 32.928116 -37.651169 -35.935772
v 32.928116 -27.066124 -35.935772
v 34.450203 -28.295591 -33.222527
v 34.450203 -36.421700 -33.222527
v 34.450203 -36.421700 27.547228
v 34.450203 -28.295591 27.547228
v 32.839500 -28.295591 -33.222527
v 32.839500 -36.421700 -33.222527
v 32.839500 -36.421700 27.547228
v 32.839500 -28.295591 27.547228
vt 0.779153 0.780432
vt 0.787741 0.787817
vt 0.779557 0.788202
vt 0.584180 0.749792
vt 0.575990 0.790328
vt 0.575990 0.749814
vt 0.649868 0.749792
vt 0.641677 0.783000
vt 0.641677 0.749853
vt 0.800470 0.755038
vt 0.809058 0.747639
vt 0.809058 0.788267
vt 0.811426 0.847232
vt 0.819619 0.839433
vt 0.819619 0.847232
vt 0.639745 0.749792
vt 0.631553 0.772939
vt 0.631553 0.749792
vt 0.658059 0.757618
vt 0.649893 0.776148
vt 0.649868 0.757586
vt 0.826662 0.870380
vt 0.819619 0.870379
vt 0.641677 0.766231
vt 0.639745 0.772939
vt 0.811426 0.870379
vt 0.658084 0.749824
vt 0.689693 0.769065
vt 0.695309 0.776364
vt 0.690503 0.776819
vt 0.571184 0.750587
vt 0.575180 0.758783
vt 0.570374 0.758328
vt 0.811426 0.874976
vt 0.014842 0.758431
vt 0.010013 0.750634
vt 0.014842 0.750634
vt 0.681503 0.768544
vt 0.689693 0.749818
vt 0.689693 0.768570
vt 0.694499 0.768610
vt 0.690503 0.750246
vt 0.695309 0.749792
vt 0.571184 0.777116
vt 0.701755 0.762387
vt 0.711980 0.749792
vt 0.711980 0.762384
vt 0.772122 0.780895
vt 0.809494 0.853940
vt 0.564183 0.749792
vt 0.671275 0.761287
vt 0.681502 0.769063
vt 0.671277 0.769066
vt 0.010013 0.766023
vt 0.005006 0.756802
vt 0.010013 0.750634
vt 0.681502 0.749792
vt 0.671277 0.749795
vt 0.000000 0.766025
vt 0.005006 0.756802
vt 0.005006 0.772193
vt 0.826662 0.847233
vt 0.915831 0.883911
vt 0.366465 0.794388
vt 0.368985 0.787765
vt 0.373553 0.794229
vt 0.464435 0.841300
vt 0.466955 0.847923
vt 0.465392 0.849040
vt 0.629887 0.749792
vt 0.701755 0.749794
vt 0.695309 0.772939
vt 0.695309 0.749792
vt 0.484913 0.870117
vt 0.480345 0.876581
vt 0.466047 0.875629
vt 0.454318 0.860410
vt 0.386941 0.765571
vt 0.611979 0.766835
vt 0.629887 0.749796
vt 0.629887 0.766840
vt 0.584180 0.749792
vt 0.598237 0.769888
vt 0.584180 0.772939
vt 0.368069 0.760056
vt 0.382373 0.759107
vt 0.611979 0.772939
vt 0.598237 0.752850
vt 0.611979 0.749792
vt 0.557010 0.615988
vt 0.712681 0.151771
vt 0.712681 0.615031
vt 0.454318 0.749792
vt 0.454318 0.885900
vt 0.471524 0.841458
vt 0.552259 0.885908
vt 0.726933 0.767976
vt 0.765539 0.705981
vt 0.751254 0.767976
vt 0.200648 0.000000
vt 0.147807 0.133678
vt 0.147790 0.000000
vt 0.200665 0.133678
vt 0.334551 0.007978
vt 0.356340 0.134028
vt 0.915831 0.833606
vt 0.981493 0.883912
vt 0.000000 0.134025
vt 0.147807 0.598821
vt 0.000000 0.599168
vt 0.808892 0.579624
vt 0.743862 0.705227
vt 0.712681 0.579413
vt 0.916011 1.000000
vt 0.025815 0.007976
vt 0.504152 0.615990
vt 0.382169 0.741834
vt 0.356341 0.615049
vt 0.905698 0.126464
vt 0.840621 0.000755
vt 0.906248 0.000000
vt 0.690904 0.741819
vt 0.557002 0.749789
vt 0.557010 0.152728
vt 0.981493 0.833607
vt 0.916011 0.706176
vt 0.981674 0.706176
vt 0.810045 0.591606
vt 0.883428 0.705228
vt 0.835994 0.706176
vt 0.655495 0.038252
vt 0.513143 0.038259
vt 0.549225 0.038258
vt 0.809494 0.126678
vt 0.906248 0.591392
vt 0.356341 0.151789
vt 0.504152 0.152730
vt 0.200665 0.598822
vt 0.809494 0.114675
vt 0.906248 0.489634
vt 0.948303 0.421905
vt 0.953711 0.489634
vt 0.156806 0.712305
vt 0.127048 0.750633
vt 0.055912 0.712304
vt 0.192888 0.712306
vt 0.226427 0.750634
vt 0.183010 0.750633
vt 0.412249 0.038264
vt 0.299158 0.712307
vt 0.713283 0.114464
vt 0.786504 0.000946
vt 0.948303 0.382675
vt 0.912834 0.368645
vt 0.948303 0.368645
vt 0.912834 0.421904
vt 0.912834 0.382674
vt 0.948303 0.327325
vt 0.524605 0.000003
vt 0.539347 0.000002
vt 0.582764 0.000000
vt 0.906248 0.258136
vt 0.912834 0.327324
vt 0.483384 0.000005
vt 0.168268 0.750633
vt 0.906248 0.258136
vt 0.949607 0.000000
vt 0.949606 0.258135
vt 0.772122 0.705999
vt 0.789349 0.747239
vt 0.772122 0.747256
vt 0.552259 0.749792
vt 0.563373 0.786394
vt 0.552259 0.791059
vt 0.789349 0.705981
vt 0.806575 0.747255
vt 0.789349 0.747235
vt 0.970933 0.258136
vt 0.953711 0.516271
vt 0.953711 0.258136
vt 1.000000 0.258136
vt 0.982807 0.516271
vt 0.982807 0.258136
vt 0.989489 0.236974
vt 0.982895 0.000000
vt 0.989489 0.000000
vt 0.976947 0.505688
vt 0.970933 0.516271
vt 0.976947 0.268713
vt 0.800470 0.788522
vt 0.789349 0.752176
vt 0.800470 0.747255
vt 0.949607 0.236975
vt 0.982895 0.000000
vt 0.982895 0.236974
vt 0.664679 0.749792
vt 0.671275 0.781470
vt 0.664679 0.781463
vt 0.664679 0.781465
vt 0.658084 0.749798
vt 0.664679 0.749792
vt 0.765539 0.705981
vt 0.772122 0.942955
vt 0.765539 0.942955
vt 0.787741 0.747256
vt 0.584180 0.790306
vt 0.649868 0.782939
vt 0.800873 0.747255
vt 0.811426 0.839433
vt 0.658084 0.776180
vt 0.641677 0.756499
vt 0.649893 0.749792
vt 0.575990 0.751042
vt 0.819619 0.874975
vt 0.010013 0.758430
vt 0.681503 0.749792
vt 0.575990 0.777572
vt 0.701755 0.749795
vt 0.772525 0.788665
vt 0.809494 0.863672
vt 0.563373 0.757532
vt 0.681500 0.761284
vt 0.005006 0.772191
vt 0.000000 0.750634
vt 0.367422 0.786648
vt 0.629887 0.772939
vt 0.701755 0.772941
vt 0.611979 0.749792
vt 0.598237 0.752845
vt 0.356341 0.775276
vt 0.598237 0.769893
vt 0.552259 0.749792
vt 0.712681 0.705981
vt 0.809494 0.705981
vt 0.981674 1.000000
vt 0.504144 0.749792
vt 0.356341 0.599172
vt 0.739066 0.000000
vt 0.953711 0.258136
vt 0.906248 0.000001
vt 0.789349 0.705981
vt 0.563373 0.754713
vt 0.806575 0.706001
vt 1.000000 0.516272
vt 0.982895 0.236974
vt 0.976947 0.268714
vt 0.976947 0.505687
vt 0.789349 0.783857
vt 0.949607 0.000000
vt 0.671275 0.749799
vt 0.658084 0.781472
vt 0.772122 0.705981
vn 0.0000 1.0000 0.0000
vn 0.0492 0.0000 0.9988
vn -0.2861 0.0000 -0.9582
vn 0.0000 -1.0000 0.0000
vn 1.0000 0.0000 0.0000
vn -1.0000 0.0000 0.0000
vn 0.1394 0.0000 -0.9902
vn 0.9903 -0.1390 0.0000
vn 0.0000 0.0000 -1.0000
vn -0.1394 0.0000 0.9902
vn -0.6109 -0.7917 0.0000
vn 0.0000 0.9644 0.2644
vn 0.0000 0.9644 -0.2644
vn 0.0000 0.0000 1.0000
vn 0.6109 0.7917 0.0000
vn 0.7274 0.6862 0.0000
vn -0.8638 -0.5038 0.0000
vn -0.6507 -0.7593 0.0000
vn -0.0874 0.1540 -0.9842
vn -0.4934 0.8698 0.0000
vn -0.9810 0.1938 0.0000
vn -0.0735 0.2366 0.9688
vn 0.7735 0.6338 0.0000
vn 0.0209 0.9958 0.0889
vn 0.0204 0.1736 0.9846
vn -0.0755 0.2428 -0.9671
vn -0.9335 0.3586 0.0000
vn 0.2474 -0.9689 0.0000
vn 0.2115 -0.9759 0.0533
vn 0.9995 -0.0307 0.0000
vn -0.0209 -0.9981 -0.0575
vn 0.1904 -0.0040 -0.9817
vn 0.9972 -0.0306 -0.0686
vn 0.2474 -0.9688 -0.0170
vn 0.0389 0.9948 -0.0936
vn 0.1606 -0.0049 0.9870
vn 0.1167 0.9931 0.0073
vn 0.0209 0.9998 0.0000
vn 0.9976 -0.0306 0.0625
vn -0.4333 0.0172 0.9011
vn -0.2257 0.9703 0.0867
vn -0.2937 0.9559 0.0000
vn -0.0209 -0.9998 0.0000
vn 0.0208 0.9954 -0.0936
vn -0.0209 -0.9983 0.0546
vn -0.8721 0.0345 -0.4880
vn -0.1863 -0.9825 0.0000
vn -0.2845 -0.9587 0.0000
vn -0.2438 -0.9682 -0.0557
vn -0.4297 0.0090 -0.9029
vn -0.9986 0.0529 0.0000
vn -0.1098 0.9940 0.0000
vn -0.8733 0.0463 0.4849
vn 0.8721 0.0000 0.4893
vn 0.6284 -0.7779 0.0000
vn 0.6284 0.7779 0.0000
vn 0.8721 0.0000 -0.4893
vn -0.0735 0.2366 -0.9688
vn -0.0874 0.1540 0.9842
vn -0.0755 0.2428 0.9671
vn 0.0204 0.1736 -0.9846
vn 0.2474 -0.9688 0.0155
vn 0.1895 -0.0058 -0.9819
vn 0.2135 -0.9753 -0.0561
vn 0.1167 0.9931 -0.0080
vn 0.1614 -0.0034 0.9869
vn 0.0353 0.9954 0.0889
vn -0.4375 0.0092 0.8992
vn -0.8687 0.0461 -0.4932
vn -0.2268 0.9696 -0.0912
vn -0.2432 -0.9685 0.0529
vn -0.4256 0.0169 -0.9048
vn -0.8767 0.0347 0.4799
usemtl Material
s off
f 5/1/1 3/2/1 1/3/1
f 3/4/2 8/5/2 4/6/2
f 7/7/3 6/8/3 8/9/3
f 6/10/4 4/11/4 8/12/4
f 1/13/5 4/14/5 2/15/5
f 5/16/6 10/17/6 6/18/6
f 14/19/7 19/20/7 16/21/7
f 2/15/8 31/22/8 9/23/8
f 5/16/6 23/24/6 12/25/6
f 2/15/5 11/26/5 1/13/5
f 16/21/9 13/27/9 14/19/9
f 10/28/4 13/29/4 9/30/4
f 11/31/1 16/32/1 12/33/1
f 9/23/5 15/34/5 11/26/5
f 17/35/6 20/36/6 18/37/6
f 12/38/10 18/39/10 10/40/10
f 14/41/4 18/42/4 20/43/4
f 16/32/1 17/44/1 12/33/1
f 21/45/11 27/46/11 23/47/11
f 1/3/12 21/48/12 5/1/12
f 11/26/5 22/49/5 1/13/5
f 12/33/13 24/50/13 11/31/13
f 26/51/1 27/52/1 25/53/1
f 21/54/14 26/55/14 25/56/14
f 24/57/15 26/51/15 22/58/15
f 23/59/9 28/60/9 24/61/9
f 29/62/16 41/63/16 31/22/16
f 2/64/14 30/65/14 29/66/14
f 9/67/9 32/68/9 10/69/9
f 10/17/17 30/70/17 6/18/17
f 34/71/18 35/72/18 33/73/18
f 32/68/9 35/74/9 36/75/9
f 32/68/19 39/76/19 37/77/19
f 30/65/14 33/78/14 29/66/14
f 37/79/20 40/80/20 38/81/20
f 34/82/21 39/83/21 36/84/21
f 30/65/22 40/85/22 34/86/22
f 32/87/23 38/88/23 30/89/23
f 44/90/24 64/91/24 54/92/24
f 29/66/25 44/93/25 42/94/25
f 31/95/26 43/96/26 35/74/26
f 35/97/27 44/98/27 33/99/27
f 46/100/28 47/101/28 45/102/28
f 48/103/29 55/104/29 56/105/29
f 42/106/30 45/107/30 41/63/30
f 51/108/31 59/109/31 62/110/31
f 49/111/32 52/112/32 51/113/32
f 45/107/33 50/114/33 41/63/33
f 47/101/34 52/115/34 45/102/34
f 43/116/35 50/117/35 49/118/35
f 54/119/36 55/120/36 53/121/36
f 44/90/37 53/122/37 42/123/37
f 43/116/38 58/124/38 44/90/38
f 46/125/39 53/126/39 55/127/39
f 63/128/40 72/129/40 71/130/40
f 58/124/41 72/131/41 64/91/41
f 58/124/42 65/132/42 66/133/42
f 56/134/14 64/135/14 63/128/14
f 48/103/43 59/109/43 47/101/43
f 43/116/44 61/136/44 57/137/44
f 56/105/45 60/138/45 48/103/45
f 51/113/9 61/139/9 49/111/9
f 70/140/46 77/141/46 69/142/46
f 67/143/47 78/144/47 70/145/47
f 68/146/47 79/147/47 76/148/47
f 57/137/42 69/149/42 65/132/42
f 60/138/48 67/143/48 59/109/48
f 60/138/48 71/150/48 68/146/48
f 59/109/49 70/145/49 62/110/49
f 62/151/50 69/152/50 61/139/50
f 73/153/51 76/154/51 74/155/51
f 73/153/51 78/156/51 75/157/51
f 76/154/51 80/158/51 74/155/51
f 66/133/52 73/159/52 74/160/52
f 66/133/52 80/161/52 72/131/52
f 71/162/53 80/158/53 79/163/53
f 65/132/52 77/164/52 73/159/52
f 68/146/47 75/165/47 67/143/47
f 82/166/6 83/167/6 81/168/6
f 84/169/9 87/170/9 83/171/9
f 85/172/54 92/173/54 86/174/54
f 86/175/14 81/176/14 85/177/14
f 87/178/4 81/179/4 83/180/4
f 84/181/1 86/182/1 88/183/1
f 92/184/4 93/185/4 89/186/4
f 87/178/55 91/187/55 85/188/55
f 86/182/56 89/189/56 88/183/56
f 88/190/57 90/191/57 87/192/57
f 93/193/5 95/194/5 94/195/5
f 89/196/14 94/197/14 90/198/14
f 91/199/9 96/200/9 92/201/9
f 90/202/1 95/203/1 91/204/1
f 5/1/1 7/205/1 3/2/1
f 3/4/2 7/206/2 8/5/2
f 7/7/3 5/207/3 6/8/3
f 6/10/4 2/208/4 4/11/4
f 1/13/5 3/209/5 4/14/5
f 5/16/6 12/25/6 10/17/6
f 14/19/7 20/210/7 19/20/7
f 2/15/8 29/62/8 31/22/8
f 5/16/6 21/211/6 23/24/6
f 2/15/5 9/23/5 11/26/5
f 16/21/9 15/212/9 13/27/9
f 10/28/4 14/41/4 13/29/4
f 11/31/1 15/213/1 16/32/1
f 9/23/5 13/214/5 15/34/5
f 17/35/6 19/215/6 20/36/6
f 12/38/10 17/216/10 18/39/10
f 14/41/4 10/28/4 18/42/4
f 16/32/1 19/217/1 17/44/1
f 21/45/11 25/218/11 27/46/11
f 1/3/12 22/219/12 21/48/12
f 11/26/5 24/220/5 22/49/5
f 12/33/13 23/221/13 24/50/13
f 26/51/1 28/222/1 27/52/1
f 21/54/14 22/223/14 26/55/14
f 24/57/15 28/222/15 26/51/15
f 23/59/9 27/224/9 28/60/9
f 29/62/16 42/106/16 41/63/16
f 2/64/14 6/225/14 30/65/14
f 9/67/9 31/95/9 32/68/9
f 10/17/17 32/226/17 30/70/17
f 34/71/18 36/227/18 35/72/18
f 32/68/9 31/95/9 35/74/9
f 32/68/58 36/75/58 39/76/58
f 30/65/14 34/86/14 33/78/14
f 37/79/20 39/228/20 40/80/20
f 34/82/21 40/229/21 39/83/21
f 30/65/59 38/230/59 40/85/59
f 32/87/23 37/231/23 38/88/23
f 44/90/24 58/124/24 64/91/24
f 29/66/60 33/78/60 44/93/60
f 31/95/61 41/232/61 43/96/61
f 35/97/27 43/233/27 44/98/27
f 46/100/28 48/103/28 47/101/28
f 48/103/62 46/100/62 55/104/62
f 42/106/30 46/125/30 45/107/30
f 51/108/31 47/101/31 59/109/31
f 49/111/63 50/234/63 52/112/63
f 45/107/33 52/235/33 50/114/33
f 47/101/64 51/108/64 52/115/64
f 43/116/65 41/236/65 50/117/65
f 54/119/66 56/134/66 55/120/66
f 44/90/67 54/92/67 53/122/67
f 43/116/38 57/137/38 58/124/38
f 46/125/39 42/106/39 53/126/39
f 63/128/68 64/135/68 72/129/68
f 58/124/42 66/133/42 72/131/42
f 58/124/42 57/137/42 65/132/42
f 56/134/14 54/119/14 64/135/14
f 48/103/43 60/138/43 59/109/43
f 43/116/44 49/118/44 61/136/44
f 56/105/45 63/237/45 60/138/45
f 51/113/9 62/151/9 61/139/9
f 70/140/69 78/156/69 77/141/69
f 67/143/47 75/165/47 78/144/47
f 68/146/47 71/150/47 79/147/47
f 57/137/70 61/136/70 69/149/70
f 60/138/48 68/146/48 67/143/48
f 60/138/71 63/237/71 71/150/71
f 59/109/48 67/143/48 70/145/48
f 62/151/72 70/238/72 69/152/72
f 73/153/51 75/157/51 76/154/51
f 73/153/51 77/141/51 78/156/51
f 76/154/51 79/163/51 80/158/51
f 66/133/52 65/132/52 73/159/52
f 66/133/52 74/160/52 80/161/52
f 71/162/73 72/239/73 80/158/73
f 65/132/52 69/149/52 77/164/52
f 68/146/47 76/148/47 75/165/47
f 82/166/6 84/240/6 83/167/6
f 84/169/9 88/241/9 87/170/9
f 85/172/54 91/242/54 92/173/54
f 86/175/14 82/243/14 81/176/14
f 87/178/4 85/188/4 81/179/4
f 84/181/1 82/244/1 86/182/1
f 92/184/4 96/245/4 93/185/4
f 87/178/55 90/246/55 91/187/55
f 86/182/56 92/247/56 89/189/56
f 88/190/57 89/248/57 90/191/57
f 93/193/5 96/249/5 95/194/5
f 89/196/14 93/250/14 94/197/14
f 91/199/9 95/251/9 96/200/9
f 90/202/1 94/252/1 95/203/1
