# Blender v2.80 (sub 75) OBJ File: ''
# www.blender.org
mtllib scoreIndicator.mtl
o Cube
v 1.000000 -0.475070 -1.000000
v 1.000000 -1.000000 -1.000000
v 1.000000 -0.475070 1.000000
v 1.000000 -1.000000 1.000000
v -1.000000 -0.475070 -1.000000
v -1.000000 -1.000000 -1.000000
v -1.000000 -0.475070 1.000000
v -1.000000 -1.000000 1.000000
v 0.634169 -0.180899 -0.634169
v 0.634169 -0.180899 0.634169
v -0.634169 -0.180899 -0.634169
v -0.634169 -0.180899 0.634169
v 0.634169 0.077421 0.634169
v -0.634169 0.077421 0.634169
v 0.634169 0.077421 -0.634169
v -0.634169 0.077421 -0.634169
vt 0.974048 0.462936
vt 0.974048 0.924933
vt 0.865610 0.840427
vt 0.865610 0.547442
vt 0.706077 0.462310
vt 0.584819 0.462310
vt 0.584819 0.000313
vt 0.706077 0.000313
vt 0.755920 0.584819
vt 0.755920 0.706077
vt 0.293923 0.706077
vt 0.293923 0.584819
vt 0.000313 0.000313
vt 0.462310 0.000313
vt 0.462310 0.462310
vt 0.000313 0.462310
vt 0.584194 0.462310
vt 0.462936 0.462310
vt 0.462936 0.000313
vt 0.584194 0.000313
vt 0.755920 0.462936
vt 0.755920 0.584194
vt 0.293923 0.584194
vt 0.293923 0.462936
vt 0.474188 0.706703
vt 0.474188 0.999687
vt 0.414516 0.999687
vt 0.414516 0.706703
vt 0.924206 0.000313
vt 0.924206 0.462310
vt 0.815767 0.377804
vt 0.815767 0.084819
vt 0.864984 0.462936
vt 0.864984 0.924933
vt 0.756546 0.840427
vt 0.756546 0.547442
vt 0.815142 0.000313
vt 0.815141 0.462310
vt 0.706703 0.377804
vt 0.706703 0.084819
vt 0.000313 0.462936
vt 0.293297 0.462936
vt 0.293297 0.755920
vt 0.000313 0.755920
vt 0.293923 0.999687
vt 0.293923 0.706703
vt 0.353594 0.706703
vt 0.353594 0.999687
vt 0.413891 0.706703
vt 0.413891 0.999687
vt 0.354219 0.999687
vt 0.354219 0.706703
vt 0.924831 0.293297
vt 0.924831 0.000313
vt 0.984502 0.000313
vt 0.984502 0.293297
vn -0.6266 0.7793 0.0000
vn 0.0000 0.0000 1.0000
vn -1.0000 0.0000 0.0000
vn 0.0000 -1.0000 0.0000
vn 1.0000 0.0000 0.0000
vn 0.0000 0.0000 -1.0000
vn 0.6266 0.7793 0.0000
vn 0.0000 0.7793 -0.6266
vn 0.0000 0.7793 0.6266
vn 0.0000 1.0000 0.0000
usemtl Material
s off
f 5/1/1 7/2/1 12/3/1 11/4/1
f 4/5/2 3/6/2 7/7/2 8/8/2
f 8/9/3 7/10/3 5/11/3 6/12/3
f 6/13/4 2/14/4 4/15/4 8/16/4
f 2/17/5 1/18/5 3/19/5 4/20/5
f 6/21/6 5/22/6 1/23/6 2/24/6
f 10/25/5 9/26/5 15/27/5 13/28/5
f 3/29/7 1/30/7 9/31/7 10/32/7
f 1/33/8 5/34/8 11/35/8 9/36/8
f 7/37/9 3/38/9 10/39/9 12/40/9
f 15/41/10 16/42/10 14/43/10 13/44/10
f 11/45/3 12/46/3 14/47/3 16/48/3
f 12/49/2 10/50/2 13/51/2 14/52/2
f 9/53/6 11/54/6 16/55/6 15/56/6
