# Blender v2.93.5 OBJ File: ''
# www.blender.org
mtllib untitled.mtl
o Cube.001
v -1.000000 -0.475070 -1.000000
v -1.000000 -0.475070 1.000000
v -0.634169 -0.180899 0.634169
v -0.634169 -0.180899 -0.634169
v 1.000000 -1.000000 1.000000
v 1.000000 -0.475070 1.000000
v -1.000000 -1.000000 1.000000
v -1.000000 -1.000000 -1.000000
v 1.000000 -1.000000 -1.000000
v 1.000000 -0.475070 -1.000000
v 0.634169 -0.180899 0.634169
v 0.634169 -0.180899 -0.634169
v 0.634169 0.077421 -0.634169
v 0.634169 0.077421 0.634169
v -0.634169 0.077421 -0.634169
v -0.634169 0.077421 0.634169
vt 0.974048 0.924933
vt 0.865610 0.547442
vt 0.974048 0.462936
vt 0.584819 0.462310
vt 0.706077 0.000313
vt 0.706077 0.462310
vt 0.755920 0.706077
vt 0.293923 0.584819
vt 0.755920 0.584819
vt 0.462310 0.000313
vt 0.000313 0.462310
vt 0.000313 0.000313
vt 0.462936 0.462310
vt 0.584194 0.000313
vt 0.584194 0.462310
vt 0.755920 0.584194
vt 0.293923 0.462936
vt 0.755920 0.462936
vt 0.474188 0.999687
vt 0.414516 0.706703
vt 0.474188 0.706703
vt 0.924206 0.462310
vt 0.815767 0.084819
vt 0.924206 0.000313
vt 0.864984 0.924933
vt 0.756546 0.547442
vt 0.864984 0.462936
vt 0.815141 0.462310
vt 0.706703 0.084819
vt 0.815142 0.000313
vt 0.293297 0.462936
vt 0.000313 0.755920
vt 0.000313 0.462936
vt 0.293923 0.706703
vt 0.353594 0.999687
vt 0.293923 0.999687
vt 0.413891 0.999687
vt 0.354219 0.706703
vt 0.413891 0.706703
vt 0.924831 0.000313
vt 0.984502 0.293297
vt 0.924831 0.293297
vt 0.865610 0.840427
vt 0.584819 0.000313
vt 0.293923 0.706077
vt 0.462310 0.462310
vt 0.462936 0.000313
vt 0.293923 0.584194
vt 0.414516 0.999687
vt 0.815767 0.377804
vt 0.756546 0.840427
vt 0.706703 0.377804
vt 0.293297 0.755920
vt 0.353594 0.706703
vt 0.354219 0.999687
vt 0.984502 0.000313
vn -0.6266 0.7793 0.0000
vn 0.0000 -0.0000 1.0000
vn -1.0000 0.0000 0.0000
vn 0.0000 -1.0000 -0.0000
vn 1.0000 0.0000 0.0000
vn 0.0000 0.0000 -1.0000
vn 0.6266 0.7793 0.0000
vn 0.0000 0.7793 -0.6266
vn 0.0000 0.7793 0.6266
vn 0.0000 1.0000 0.0000
usemtl Material.001
s 1
f 2/1/1 4/2/1 1/3/1
f 6/4/2 7/5/2 5/6/2
f 2/7/3 8/8/3 7/9/3
f 9/10/4 7/11/4 8/12/4
f 10/13/5 5/14/5 9/15/5
f 1/16/6 9/17/6 8/18/6
f 12/19/5 14/20/5 11/21/5
f 10/22/7 11/23/7 6/24/7
f 1/25/8 12/26/8 10/27/8
f 6/28/9 3/29/9 2/30/9
f 15/31/10 14/32/10 13/33/10
f 3/34/3 15/35/3 4/36/3
f 11/37/2 16/38/2 3/39/2
f 4/40/6 13/41/6 12/42/6
f 2/1/1 3/43/1 4/2/1
f 6/4/2 2/44/2 7/5/2
f 2/7/3 1/45/3 8/8/3
f 9/10/4 5/46/4 7/11/4
f 10/13/5 6/47/5 5/14/5
f 1/16/6 10/48/6 9/17/6
f 12/19/5 13/49/5 14/20/5
f 10/22/7 12/50/7 11/23/7
f 1/25/8 4/51/8 12/26/8
f 6/28/9 11/52/9 3/29/9
f 15/31/10 16/53/10 14/32/10
f 3/34/3 16/54/3 15/35/3
f 11/37/2 14/55/2 16/38/2
f 4/40/6 15/56/6 13/41/6
