# Blender v2.90.1 OBJ File: 'EnemyCraftVer2-b.blend'
# www.blender.org
mtllib EnemyCraftVer2-b.mtl
o Cube
v 0.983099 1.002254 -1.000000
v 0.983099 -0.997747 -1.000000
v 0.983099 1.002254 1.000000
v 0.983099 -0.997747 1.000000
v 0.680243 -0.997747 1.000000
v 0.680243 1.002254 -1.000000
v 0.680243 -0.997747 -1.000000
v 0.680243 1.002254 1.000000
v 0.983099 -0.017227 -1.000000
v 0.983099 -0.017227 2.340096
v 0.680243 -0.017227 2.340096
v 0.680243 -0.017227 -1.000000
v 0.680243 0.624585 0.536354
v 0.680243 -0.620078 0.536354
v 0.680243 -0.017227 0.761022
v 0.680243 1.073284 -1.163208
v 0.680243 0.005347 -1.163208
v 0.680243 -1.075458 -1.171982
v 0.680243 -0.042789 -1.171982
v 0.983099 1.002254 0.267027
v 0.983099 -0.997747 0.267027
v 0.680243 1.002254 0.267027
v 0.680243 -0.997747 0.267027
v 2.147421 -0.017227 1.076257
v 0.983099 -0.997747 -0.542702
v 0.983099 1.002254 -0.542702
v 0.680243 1.002254 -0.542702
v 0.680243 -0.997747 -0.542702
v 2.147421 -0.017227 0.368739
v 0.600908 0.951754 -1.256966
v 0.600908 0.046558 -1.256966
v 0.600908 -0.956112 -1.265741
v 0.600908 -0.085510 -1.265741
v 0.474696 0.830345 -1.167822
v 0.474696 0.039320 -1.167822
v 0.474696 -0.836884 -1.176597
v 0.474696 -0.076090 -1.176597
v 0.001868 -0.997747 -1.000000
v 0.001868 1.002254 1.000000
v 0.001868 -0.997747 1.000000
v 0.001868 1.002254 -1.000000
v 0.001868 -0.017227 -1.000000
v 0.001868 0.624585 0.536354
v 0.001868 -0.620078 0.536354
v 0.001868 -0.017227 0.761022
v 0.001868 1.073284 -1.163208
v 0.001868 0.005347 -1.163208
v 0.001868 -1.075458 -1.171982
v 0.001868 -0.042789 -1.171982
v 0.001868 -0.997747 0.267027
v 0.001868 1.002254 0.267027
v 0.001868 1.002254 -0.542702
v 0.001868 -0.997747 -0.542702
v 0.001868 0.951754 -1.256966
v 0.001868 0.046558 -1.256966
v 0.001868 -0.956112 -1.265741
v 0.001868 -0.085510 -1.265741
v 0.001868 0.830345 -1.167822
v 0.001868 0.039320 -1.167822
v 0.001868 -0.836884 -1.176597
v 0.001868 -0.076090 -1.176597
v 0.566342 1.413009 -0.011171
v 0.566342 1.413009 0.460776
v 0.115769 1.413009 0.460776
v 0.115769 1.413009 -0.011171
v 0.460766 1.665079 0.478785
v 0.460766 1.665079 0.905647
v 0.221345 1.665079 0.905647
v 0.221345 1.665079 0.478785
v 0.609045 -1.476511 -0.170684
v 0.609045 -1.476511 0.333496
v 0.073066 -1.476511 0.333496
v 0.073066 -1.476511 -0.170684
v 0.497991 -1.683101 0.422079
v 0.497991 -1.683101 0.791037
v 0.184120 -1.683101 0.791037
v 0.184120 -1.683101 0.422079
v -0.983099 1.002254 -1.000000
v -0.983099 -0.997747 -1.000000
v -0.983099 1.002254 1.000000
v -0.983099 -0.997747 1.000000
v -0.680243 -0.997747 1.000000
v -0.680243 1.002254 -1.000000
v -0.680243 -0.997747 -1.000000
v -0.680243 1.002254 1.000000
v -0.983099 -0.017227 -1.000000
v -0.983099 -0.017227 2.340096
v -0.680243 -0.017227 2.340096
v -0.680243 -0.017227 -1.000000
v -0.680243 0.624585 0.536354
v -0.680243 -0.620078 0.536354
v -0.680243 -0.017227 0.761022
v -0.680243 1.073284 -1.163208
v -0.680243 0.005347 -1.163208
v -0.680243 -1.075458 -1.171982
v -0.680243 -0.042789 -1.171982
v -0.983099 1.002254 0.267027
v -0.983099 -0.997747 0.267027
v -0.680243 1.002254 0.267027
v -0.680243 -0.997747 0.267027
v -2.147421 -0.017227 1.076257
v -0.983099 -0.997747 -0.542702
v -0.983099 1.002254 -0.542702
v -0.680243 1.002254 -0.542702
v -0.680243 -0.997747 -0.542702
v -2.147421 -0.017227 0.368739
v -0.600908 0.951754 -1.256966
v -0.600908 0.046558 -1.256966
v -0.600908 -0.956112 -1.265741
v -0.600908 -0.085510 -1.265741
v -0.474696 0.830345 -1.167822
v -0.474696 0.039320 -1.167822
v -0.474696 -0.836884 -1.176597
v -0.474696 -0.076090 -1.176597
v -0.001868 -0.997747 -1.000000
v -0.001868 1.002254 1.000000
v -0.001868 -0.997747 1.000000
v -0.001868 1.002254 -1.000000
v -0.001868 -0.017227 -1.000000
v -0.001868 0.624585 0.536354
v -0.001868 -0.620078 0.536354
v -0.001868 -0.017227 0.761022
v -0.001868 1.073284 -1.163208
v -0.001868 0.005347 -1.163208
v -0.001868 -1.075458 -1.171982
v -0.001868 -0.042789 -1.171982
v -0.001868 -0.997747 0.267027
v -0.001868 1.002254 0.267027
v -0.001868 1.002254 -0.542702
v -0.001868 -0.997747 -0.542702
v -0.001868 0.951754 -1.256966
v -0.001868 0.046558 -1.256966
v -0.001868 -0.956112 -1.265741
v -0.001868 -0.085510 -1.265741
v -0.001868 0.830345 -1.167822
v -0.001868 0.039320 -1.167822
v -0.001868 -0.836884 -1.176597
v -0.001868 -0.076090 -1.176597
v -0.566342 1.413009 -0.011171
v -0.566342 1.413009 0.460776
v -0.115769 1.413009 0.460776
v -0.115769 1.413009 -0.011171
v -0.460766 1.665079 0.478785
v -0.460766 1.665079 0.905647
v -0.221345 1.665079 0.905647
v -0.221345 1.665079 0.478785
v -0.609045 -1.476511 -0.170684
v -0.609045 -1.476511 0.333496
v -0.073066 -1.476511 0.333496
v -0.073066 -1.476511 -0.170684
v -0.497991 -1.683101 0.422079
v -0.497991 -1.683101 0.791037
v -0.184120 -1.683101 0.791037
v -0.184120 -1.683101 0.422079
vt 0.243571 0.366570
vt 0.365950 0.294279
vt 0.274106 0.388748
vt 0.564417 0.561635
vt 0.763788 0.364198
vt 0.853207 0.637961
vt 0.943854 0.359150
vt 0.888549 0.176077
vt 0.943854 0.176077
vt 0.710441 0.245383
vt 0.675100 0.268466
vt 0.888549 0.614878
vt 0.557134 0.079900
vt 0.621616 0.000000
vt 0.636296 0.028195
vt 0.208676 0.651443
vt 0.368916 0.606651
vt 0.277071 0.701119
vt 0.418529 0.000000
vt 0.335416 0.272102
vt 0.010132 0.654676
vt 0.180722 0.734526
vt 0.000000 0.955488
vt 0.888549 0.000000
vt 0.943854 0.000000
vt 0.142776 0.077627
vt 0.783936 0.850952
vt 0.874745 0.924678
vt 0.783936 0.952228
vt 0.291137 0.876927
vt 0.291137 0.770080
vt 0.660057 0.637961
vt 0.769449 0.659784
vt 0.660057 0.659784
vt 0.945292 0.367948
vt 0.903598 0.499880
vt 0.916566 0.359150
vt 0.553525 0.954732
vt 0.568356 0.864906
vt 0.568356 0.947429
vt 0.115341 0.552047
vt 0.011195 0.477419
vt 0.030534 0.452663
vt 0.524073 0.868762
vt 0.524073 0.962214
vt 0.054120 0.168815
vt 0.142108 0.470931
vt 0.747485 0.951555
vt 0.660057 0.842521
vt 0.747485 0.829736
vt 0.612466 0.139626
vt 0.577125 0.162709
vt 0.478809 0.469228
vt 0.172643 0.493109
vt 0.084807 0.529870
vt 0.449064 0.201718
vt 0.521793 0.102983
vt 0.241038 0.542785
vt 0.183736 0.601724
vt 0.000000 0.430485
vt 0.798424 0.815731
vt 0.821471 0.680803
vt 0.821471 0.817422
vt 0.783936 0.823402
vt 0.798424 0.659392
vt 0.783936 0.829736
vt 0.783936 0.637961
vt 0.660057 0.681586
vt 0.746401 0.823635
vt 0.660057 0.823635
vt 0.907815 0.817422
vt 0.907815 0.680803
vt 0.769449 0.822335
vt 0.746401 0.681586
vt 0.440843 0.632564
vt 0.424512 0.690045
vt 0.424512 0.631766
vt 0.408374 0.633349
vt 0.424512 0.696902
vt 0.408374 0.715872
vt 0.907815 0.637961
vt 0.783936 0.637961
vt 0.915978 0.582603
vt 0.888549 0.504447
vt 0.907815 0.659392
vt 0.524073 0.983099
vt 0.449064 0.881734
vt 0.524073 0.861280
vt 0.945292 0.585015
vt 0.932912 0.502292
vt 0.449064 0.754782
vt 0.572943 0.861280
vt 0.449064 0.861280
vt 0.449064 0.637961
vt 0.572943 0.754782
vt 0.100513 0.582090
vt 0.443910 0.477365
vt 0.453436 0.624801
vt 0.364748 0.529069
vt 0.907815 0.739137
vt 0.986575 0.669471
vt 0.986575 0.770647
vt 0.609283 0.727075
vt 0.641604 0.699899
vt 0.660057 0.795556
vt 0.719375 0.160586
vt 0.776479 0.222226
vt 0.572943 0.796188
vt 0.660057 0.913682
vt 0.291137 0.878181
vt 0.364621 0.979546
vt 0.291137 1.000000
vt 0.836899 0.173870
vt 0.860610 0.247870
vt 0.808961 0.192118
vt 1.000000 0.005989
vt 0.970166 0.089816
vt 0.943854 0.000000
vt 0.771954 0.126244
vt 0.335376 0.796564
vt 0.347208 0.837804
vt 0.293789 0.878181
vt 0.267846 0.498903
vt 0.291137 0.720380
vt 0.408374 0.741388
vt 0.874745 0.823402
vt 0.962600 0.932436
vt 0.874745 0.945222
vt 0.371187 0.451577
vt 0.449064 0.427009
vt 0.402832 0.474561
vt 0.364621 0.966728
vt 0.435187 0.878181
vt 0.439705 0.966728
vt 0.321884 0.538152
vt 0.331022 0.433922
vt 0.365950 0.294279
vt 0.243571 0.366570
vt 0.274106 0.388748
vt 0.564417 0.561635
vt 0.763788 0.364198
vt 0.675100 0.268466
vt 0.888549 0.176077
vt 0.943854 0.359150
vt 0.943854 0.176077
vt 0.710441 0.245383
vt 0.888549 0.614878
vt 0.853207 0.637961
vt 0.621616 0.000000
vt 0.557134 0.079900
vt 0.636296 0.028195
vt 0.368916 0.606651
vt 0.208676 0.651443
vt 0.277071 0.701119
vt 0.418529 0.000000
vt 0.335416 0.272102
vt 0.180722 0.734526
vt 0.010132 0.654676
vt 0.000000 0.955488
vt 0.888549 0.000000
vt 0.943854 0.000000
vt 0.142776 0.077627
vt 0.783936 0.850952
vt 0.874745 0.924678
vt 0.874745 0.823402
vt 0.291137 0.876927
vt 0.660057 0.637961
vt 0.769449 0.659784
vt 0.783936 0.637961
vt 0.945292 0.367948
vt 0.903598 0.499880
vt 0.932912 0.502292
vt 0.553525 0.954732
vt 0.568356 0.864906
vt 0.553525 0.861280
vt 0.011195 0.477419
vt 0.115341 0.552047
vt 0.030534 0.452663
vt 0.524073 0.868762
vt 0.524073 0.962214
vt 0.054120 0.168815
vt 0.142108 0.470931
vt 0.660057 0.842521
vt 0.747485 0.951555
vt 0.747485 0.829736
vt 0.612466 0.139626
vt 0.577125 0.162709
vt 0.478809 0.469228
vt 0.172643 0.493109
vt 0.084807 0.529870
vt 0.449064 0.201718
vt 0.521793 0.102983
vt 0.241038 0.542785
vt 0.183736 0.601724
vt 0.000000 0.430485
vt 0.798424 0.815731
vt 0.821471 0.680803
vt 0.798424 0.659392
vt 0.783936 0.823402
vt 0.783936 0.637961
vt 0.783936 0.829736
vt 0.746401 0.823635
vt 0.660057 0.681586
vt 0.660057 0.823635
vt 0.907815 0.817422
vt 0.907815 0.680803
vt 0.746401 0.681586
vt 0.769449 0.822335
vt 0.660057 0.659784
vt 0.440843 0.632564
vt 0.424512 0.690045
vt 0.440843 0.706400
vt 0.424512 0.696902
vt 0.408374 0.633349
vt 0.408374 0.715872
vt 0.907815 0.637961
vt 0.888549 0.504447
vt 0.915978 0.582603
vt 0.907815 0.659392
vt 0.449064 0.881734
vt 0.524073 0.983099
vt 0.524073 0.861280
vt 0.945292 0.585015
vt 0.572943 0.861280
vt 0.449064 0.754782
vt 0.449064 0.861280
vt 0.572943 0.754782
vt 0.449064 0.637961
vt 0.100513 0.582090
vt 0.453436 0.624801
vt 0.443910 0.477365
vt 0.364748 0.529069
vt 0.986575 0.669471
vt 0.907815 0.739137
vt 0.986575 0.770647
vt 0.641604 0.699899
vt 0.609283 0.727075
vt 0.660057 0.795556
vt 0.719375 0.160586
vt 0.572943 0.796188
vt 0.660057 0.913682
vt 0.364621 0.979546
vt 0.291137 0.878181
vt 0.291137 1.000000
vt 0.860610 0.247870
vt 0.836899 0.173870
vt 0.808961 0.192118
vt 0.970166 0.089816
vt 1.000000 0.005989
vt 0.943854 0.000000
vt 0.771954 0.126244
vt 0.776479 0.222226
vt 0.335376 0.796564
vt 0.347208 0.837804
vt 0.408374 0.741388
vt 0.267846 0.498903
vt 0.291137 0.720380
vt 0.408374 0.631766
vt 0.962600 0.932436
vt 0.874745 0.823402
vt 0.874745 0.945222
vt 0.449064 0.427009
vt 0.371187 0.451577
vt 0.402832 0.474561
vt 0.435187 0.878181
vt 0.364621 0.966728
vt 0.439705 0.966728
vt 0.321884 0.538152
vt 0.331022 0.433922
vt 0.888549 0.359150
vt 0.799129 0.341115
vt 0.542454 0.051704
vt 0.300521 0.556975
vt 0.449064 0.022178
vt 0.116259 0.631766
vt 0.874745 0.823402
vt 0.553525 0.861280
vt 0.660057 0.938769
vt 0.440843 0.706400
vt 0.424512 0.631766
vt 0.899481 0.577495
vt 0.691628 0.087922
vt 0.449064 0.962646
vt 0.572943 0.637961
vt 0.168907 0.631766
vt 0.532598 0.573097
vt 0.907815 0.637961
vt 0.595681 0.637961
vt 0.364621 0.898634
vt 0.888549 0.229622
vt 1.000000 0.092998
vt 0.408374 0.631766
vt 0.962600 0.836188
vt 0.417419 0.404024
vt 0.391218 0.878181
vt 0.888549 0.359150
vt 0.799129 0.341115
vt 0.542454 0.051704
vt 0.300521 0.556975
vt 0.449064 0.022178
vt 0.116259 0.631766
vt 0.783936 0.952228
vt 0.291137 0.770080
vt 0.916566 0.359150
vt 0.568356 0.947429
vt 0.660057 0.938769
vt 0.821471 0.817422
vt 0.424512 0.631766
vt 0.424512 0.631766
vt 0.899481 0.577495
vt 0.691628 0.087922
vt 0.449064 0.962646
vt 0.572943 0.637961
vt 0.168907 0.631766
vt 0.532598 0.573097
vt 0.907815 0.637961
vt 0.595681 0.637961
vt 0.364621 0.898634
vt 0.888549 0.229622
vt 1.000000 0.092998
vt 0.293789 0.878181
vt 0.962600 0.836188
vt 0.417419 0.404024
vt 0.391218 0.878181
vn 0.0000 -1.0000 0.0000
vn 0.5492 0.6651 0.5060
vn 0.0000 0.0000 -1.0000
vn 0.0000 1.0000 0.0000
vn 0.0000 0.7959 0.6055
vn 0.0000 0.9169 0.3991
vn 0.0000 -0.8070 0.5905
vn -1.0000 0.0000 0.0000
vn 0.6442 -0.7649 0.0000
vn 0.0000 0.7753 0.6316
vn 0.0000 0.6108 -0.7918
vn 1.0000 0.0000 0.0000
vn 0.0000 0.9100 -0.4146
vn 0.0000 0.9891 -0.1470
vn 0.0000 -0.6136 -0.7896
vn 0.6588 0.7524 0.0000
vn 0.7314 0.2791 -0.6222
vn -0.5769 0.0000 -0.8168
vn 0.7634 0.0000 -0.6459
vn 0.0000 -0.5918 -0.8061
vn 0.0000 -0.9945 0.1051
vn 0.0000 0.9967 0.0809
vn 0.0000 -0.6178 -0.7864
vn 0.0000 -0.9155 -0.4024
vn 0.0000 0.5988 -0.8009
vn 0.0000 0.7913 -0.6115
vn 0.0000 -0.9906 -0.1370
vn 0.0000 -0.3492 0.9370
vn 0.0000 0.3304 0.9438
vn 0.0000 -0.9113 0.4118
vn 0.0000 -0.7753 0.6316
vn -0.9224 0.3863 0.0000
vn 0.9636 0.2672 0.0000
vn -0.9636 0.2672 0.0000
vn 0.0000 -0.4266 0.9044
vn 0.0000 -0.8700 0.4930
vn 0.0000 0.8892 -0.4575
vn 0.9224 0.3863 0.0000
vn -0.8808 -0.4735 0.0000
vn 0.9891 -0.1471 0.0000
vn -0.9891 -0.1471 0.0000
vn 0.0000 0.1375 0.9905
vn 0.0000 0.9114 0.4115
vn 0.0000 -0.9443 -0.3291
vn 0.8808 -0.4735 0.0000
vn -0.6588 0.7524 0.0000
vn -0.6442 -0.7649 0.0000
vn 0.5769 0.0000 -0.8168
vn -0.7634 0.0000 -0.6459
vn 0.5396 -0.6795 0.4971
vn 0.7291 -0.2893 -0.6202
vn -0.5492 0.6651 0.5060
vn -0.5396 -0.6794 0.4971
vn -0.7314 0.2791 -0.6222
vn -0.7291 -0.2893 -0.6202
usemtl Material
s off
f 21/1/1 5/2/1 23/3/1
f 24/4/2 3/5/2 10/6/2
f 6/7/3 9/8/3 12/9/3
f 22/10/4 3/5/4 20/11/4
f 3/5/5 11/12/5 10/6/5
f 6/13/6 46/14/6 41/15/6
f 23/16/1 40/17/1 50/18/1
f 10/19/7 5/2/7 4/20/7
f 8/21/8 15/22/8 11/23/8
f 12/9/3 2/24/3 7/25/3
f 24/26/9 4/20/9 21/1/9
f 40/27/10 14/28/10 44/29/10
f 5/30/8 15/22/8 14/31/8
f 46/32/11 30/33/11 54/34/11
f 6/35/12 17/36/12 16/37/12
f 49/38/13 33/39/13 57/40/13
f 7/41/12 19/42/12 12/43/12
f 12/44/14 49/38/14 42/45/14
f 29/46/9 21/1/9 25/47/9
f 28/48/15 73/49/15 53/50/15
f 27/51/4 20/11/4 26/52/4
f 29/53/16 20/11/16 24/4/16
f 25/47/1 23/3/1 28/54/1
f 2/55/1 28/54/1 7/41/1
f 9/56/17 26/52/17 29/53/17
f 6/13/4 26/52/4 1/57/4
f 7/41/1 53/58/1 38/59/1
f 9/60/12 25/47/12 2/55/12
f 33/61/18 36/62/18 37/63/18
f 19/64/19 32/65/19 33/61/19
f 17/66/19 30/33/19 16/67/19
f 58/68/3 35/69/3 59/70/3
f 61/71/3 36/62/3 60/72/3
f 31/73/18 34/74/18 30/33/18
f 54/34/20 34/74/20 58/68/20
f 57/75/21 37/76/21 61/77/21
f 55/78/22 35/79/22 31/80/22
f 48/81/23 32/65/23 18/82/23
f 47/83/24 31/84/24 17/36/24
f 56/85/25 36/62/25 32/65/25
f 41/15/4 27/51/4 6/13/4
f 52/86/26 62/87/26 27/88/26
f 42/89/27 17/36/27 12/90/27
f 15/91/28 44/92/28 14/93/28
f 13/94/29 45/95/29 15/91/29
f 38/59/30 18/96/30 7/41/30
f 51/97/4 8/98/4 22/99/4
f 39/100/31 13/101/31 8/102/31
f 64/103/32 69/104/32 65/105/32
f 22/10/33 62/106/33 63/107/33
f 51/108/34 65/105/34 52/109/34
f 22/110/35 64/111/35 51/112/35
f 69/113/4 67/114/4 66/115/4
f 63/116/36 68/117/36 64/118/36
f 65/119/37 66/115/37 62/106/37
f 63/107/38 66/115/38 67/114/38
f 72/120/39 77/121/39 76/122/39
f 23/3/40 70/123/40 28/54/40
f 50/124/41 73/125/41 72/120/41
f 50/126/42 71/127/42 23/128/42
f 74/129/1 76/130/1 77/131/1
f 72/132/43 75/133/43 71/134/43
f 70/123/44 77/131/44 73/135/44
f 71/136/45 74/129/45 70/123/45
f 82/137/1 98/138/1 100/139/1
f 101/140/46 80/141/46 97/142/46
f 86/143/3 83/144/3 89/145/3
f 80/141/4 99/146/4 97/142/4
f 88/147/5 80/141/5 87/148/5
f 123/149/6 83/150/6 118/151/6
f 117/152/1 100/153/1 127/154/1
f 82/137/7 87/155/7 81/156/7
f 92/157/12 85/158/12 88/159/12
f 79/160/3 89/145/3 84/161/3
f 81/156/47 101/162/47 98/138/47
f 117/163/10 91/164/10 82/165/10
f 82/166/12 92/157/12 88/159/12
f 123/167/11 107/168/11 93/169/11
f 83/170/8 94/171/8 89/172/8
f 126/173/13 110/174/13 96/175/13
f 96/176/8 84/177/8 89/178/8
f 126/173/14 89/179/14 119/180/14
f 98/138/47 106/181/47 102/182/47
f 150/183/15 105/184/15 130/185/15
f 97/142/4 104/186/4 103/187/4
f 106/188/46 97/142/46 103/187/46
f 100/139/1 102/182/1 105/189/1
f 105/189/1 79/190/1 84/177/1
f 86/191/8 103/187/8 78/192/8
f 103/187/4 83/150/4 78/192/4
f 130/193/1 84/177/1 115/194/1
f 102/182/8 86/195/8 79/190/8
f 110/196/48 113/197/48 109/198/48
f 96/199/49 109/198/49 95/200/49
f 107/168/49 94/201/49 93/169/49
f 112/202/3 135/203/3 136/204/3
f 113/197/3 138/205/3 137/206/3
f 111/207/48 108/208/48 107/168/48
f 131/209/20 111/207/20 107/168/20
f 134/210/21 114/211/21 110/212/21
f 112/213/22 132/214/22 108/215/22
f 109/198/23 125/216/23 95/200/23
f 108/217/24 124/218/24 94/171/24
f 113/197/25 133/219/25 109/198/25
f 104/186/4 118/151/4 83/150/4
f 139/220/26 129/221/26 104/222/26
f 94/171/27 119/223/27 89/172/27
f 121/224/28 92/225/28 91/226/28
f 122/227/29 90/228/29 92/225/29
f 95/229/30 115/194/30 84/177/30
f 85/230/4 128/231/4 99/232/4
f 90/233/31 116/234/31 85/235/31
f 146/236/38 141/237/38 142/238/38
f 99/146/34 139/239/34 104/186/34
f 142/238/33 128/240/33 129/241/33
f 141/242/35 99/243/35 128/244/35
f 144/245/4 146/246/4 143/247/4
f 145/248/36 140/249/36 141/250/36
f 143/247/37 142/251/37 139/239/37
f 140/252/32 143/247/32 139/239/32
f 149/253/45 154/254/45 150/255/45
f 147/256/41 100/139/41 105/189/41
f 127/257/40 150/255/40 130/258/40
f 148/259/42 127/260/42 100/261/42
f 153/262/1 151/263/1 154/264/1
f 152/265/43 149/266/43 148/267/43
f 154/264/44 147/256/44 150/268/44
f 151/263/39 148/269/39 147/256/39
f 21/1/1 4/20/1 5/2/1
f 24/4/16 20/11/16 3/5/16
f 6/7/3 1/270/3 9/8/3
f 22/10/4 8/271/4 3/5/4
f 3/5/5 8/271/5 11/12/5
f 6/13/6 16/272/6 46/14/6
f 23/16/1 5/273/1 40/17/1
f 10/19/7 11/274/7 5/2/7
f 8/21/8 13/275/8 15/22/8
f 12/9/3 9/8/3 2/24/3
f 24/26/50 10/19/50 4/20/50
f 40/27/10 5/276/10 14/28/10
f 5/30/8 11/23/8 15/22/8
f 46/32/11 16/67/11 30/33/11
f 6/35/12 12/90/12 17/36/12
f 49/38/13 19/277/13 33/39/13
f 7/41/12 18/96/12 19/42/12
f 12/44/14 19/277/14 49/38/14
f 29/46/9 24/26/9 21/1/9
f 28/48/15 70/278/15 73/49/15
f 27/51/4 22/10/4 20/11/4
f 29/53/16 26/52/16 20/11/16
f 25/47/1 21/1/1 23/3/1
f 2/55/1 25/47/1 28/54/1
f 9/56/12 1/57/12 26/52/12
f 6/13/4 27/51/4 26/52/4
f 7/41/1 28/54/1 53/58/1
f 9/60/51 29/46/51 25/47/51
f 33/61/18 32/65/18 36/62/18
f 19/64/19 18/82/19 32/65/19
f 17/66/19 31/73/19 30/33/19
f 58/68/3 34/74/3 35/69/3
f 61/71/3 37/63/3 36/62/3
f 31/73/18 35/69/18 34/74/18
f 54/34/20 30/33/20 34/74/20
f 57/75/21 33/279/21 37/76/21
f 55/78/22 59/280/22 35/79/22
f 48/81/23 56/85/23 32/65/23
f 47/83/24 55/281/24 31/84/24
f 56/85/25 60/72/25 36/62/25
f 41/15/4 52/282/4 27/51/4
f 52/86/26 65/283/26 62/87/26
f 42/89/27 47/83/27 17/36/27
f 15/91/28 45/95/28 44/92/28
f 13/94/29 43/284/29 45/95/29
f 38/59/30 48/285/30 18/96/30
f 51/97/4 39/286/4 8/98/4
f 39/100/31 43/287/31 13/101/31
f 64/103/32 68/288/32 69/104/32
f 22/10/33 27/51/33 62/106/33
f 51/108/34 64/103/34 65/105/34
f 22/110/35 63/289/35 64/111/35
f 69/113/4 68/290/4 67/114/4
f 63/116/36 67/291/36 68/117/36
f 65/119/37 69/113/37 66/115/37
f 63/107/38 62/106/38 66/115/38
f 72/120/39 73/125/39 77/121/39
f 23/3/40 71/136/40 70/123/40
f 50/124/41 53/292/41 73/125/41
f 50/126/42 72/293/42 71/127/42
f 74/129/1 75/294/1 76/130/1
f 72/132/43 76/295/43 75/133/43
f 70/123/44 74/129/44 77/131/44
f 71/136/45 75/294/45 74/129/45
f 82/137/1 81/156/1 98/138/1
f 101/140/52 87/148/52 80/141/52
f 86/143/3 78/296/3 83/144/3
f 80/141/4 85/297/4 99/146/4
f 88/147/5 85/297/5 80/141/5
f 123/149/6 93/298/6 83/150/6
f 117/152/1 82/299/1 100/153/1
f 82/137/7 88/300/7 87/155/7
f 92/157/12 90/301/12 85/158/12
f 79/160/3 86/143/3 89/145/3
f 81/156/53 87/155/53 101/162/53
f 117/163/10 121/302/10 91/164/10
f 82/166/12 91/303/12 92/157/12
f 123/167/11 131/209/11 107/168/11
f 83/170/8 93/304/8 94/171/8
f 126/173/13 134/305/13 110/174/13
f 96/176/8 95/229/8 84/177/8
f 126/173/14 96/175/14 89/179/14
f 98/138/47 101/162/47 106/181/47
f 150/183/15 147/306/15 105/184/15
f 97/142/4 99/146/4 104/186/4
f 106/188/46 101/140/46 97/142/46
f 100/139/1 98/138/1 102/182/1
f 105/189/1 102/182/1 79/190/1
f 86/191/54 106/188/54 103/187/54
f 103/187/4 104/186/4 83/150/4
f 130/193/1 105/189/1 84/177/1
f 102/182/55 106/181/55 86/195/55
f 110/196/48 114/307/48 113/197/48
f 96/199/49 110/196/49 109/198/49
f 107/168/49 108/208/49 94/201/49
f 112/202/3 111/207/3 135/203/3
f 113/197/3 114/307/3 138/205/3
f 111/207/48 112/202/48 108/208/48
f 131/209/20 135/203/20 111/207/20
f 134/210/21 138/308/21 114/211/21
f 112/213/22 136/309/22 132/214/22
f 109/198/23 133/219/23 125/216/23
f 108/217/24 132/310/24 124/218/24
f 113/197/25 137/206/25 133/219/25
f 104/186/4 129/311/4 118/151/4
f 139/220/26 142/312/26 129/221/26
f 94/171/27 124/218/27 119/223/27
f 121/224/28 122/227/28 92/225/28
f 122/227/29 120/313/29 90/228/29
f 95/229/30 125/314/30 115/194/30
f 85/230/4 116/315/4 128/231/4
f 90/233/31 120/316/31 116/234/31
f 146/236/38 145/317/38 141/237/38
f 99/146/34 140/252/34 139/239/34
f 142/238/33 141/237/33 128/240/33
f 141/242/35 140/318/35 99/243/35
f 144/245/4 145/319/4 146/246/4
f 145/248/36 144/320/36 140/249/36
f 143/247/37 146/246/37 142/251/37
f 140/252/32 144/245/32 143/247/32
f 149/253/45 153/321/45 154/254/45
f 147/256/41 148/269/41 100/139/41
f 127/257/40 149/253/40 150/255/40
f 148/259/42 149/322/42 127/260/42
f 153/262/1 152/323/1 151/263/1
f 152/265/43 153/324/43 149/266/43
f 154/264/44 151/263/44 147/256/44
f 151/263/39 152/323/39 148/269/39
