# Blender v2.90.1 OBJ File: 'Object1Ver2.blend'
# www.blender.org
mtllib Object1Ver2.mtl
o Cube
v 9.415490 1.000000 -1.512964
v 9.415490 -1.000000 -1.512964
v 9.415490 1.000000 0.487036
v 9.415490 -1.000000 0.487036
v 7.415490 1.000000 -1.512964
v 7.415490 -1.000000 -1.512964
v -1.000000 1.000000 1.000000
v -1.000000 -1.000000 1.000000
v 9.415490 -1.000000 -7.448790
v 7.415490 -1.000000 -7.448790
v 9.415490 1.000000 -7.448790
v 7.415490 1.000000 -7.448790
v 9.415490 -1.000000 -8.627475
v 7.415490 -1.000000 -8.627475
v 9.415490 1.000000 -8.627475
v 7.415490 1.000000 -8.627475
v 2.628356 1.000000 -8.122859
v 2.628356 -1.000000 -8.122859
v 2.628356 1.000000 -9.301544
v 2.628356 -1.000000 -9.301544
v 7.415490 1.471637 -3.233085
v 9.415490 1.471637 -3.233085
v 7.415490 1.471637 -5.728669
v 9.415490 1.471637 -5.728669
v 4.287324 3.885448 -3.233085
v 6.287324 3.885448 -3.233085
v 4.287324 3.885448 -5.728669
v 6.287324 3.885448 -5.728669
v 9.174809 -2.714122 -1.512964
v 7.656172 -1.412683 -1.512964
v 9.174809 -2.714122 -7.448790
v 7.656172 -1.412683 -7.448790
v 1.492095 -5.102503 -1.512964
v -0.026542 -3.801064 -1.512964
v 1.492095 -5.102503 -7.448790
v -0.026542 -3.801064 -7.448790
v 4.858343 2.002213 -6.666111
v 4.858343 2.002213 -2.295643
v 0.648061 -0.386168 -6.666111
v 0.648061 -0.386168 -2.295643
v 30.133633 -24.932348 -10.930997
v 30.133633 -24.932348 1.969243
v -4.560034 -20.854954 -10.930997
v -4.560034 -20.854954 1.969243
v 29.641745 -40.950703 -10.930997
v 29.641745 -40.950703 1.969243
v -5.051922 -49.810959 -10.930997
v -5.051922 -49.810959 1.969243
v -4.560034 -24.248610 -47.003170
v 28.086163 -24.932348 -40.699596
v -5.051922 -47.734612 -47.003170
v 27.594275 -40.950703 -40.699596
v 28.086163 -24.932348 34.648735
v -4.560034 -24.248610 39.963451
v 27.594275 -40.950703 34.648735
v -5.051922 -47.734612 39.963451
v -123.844666 -18.356668 -10.930997
v -123.844666 -18.356668 1.969243
v -124.336555 -47.312675 -10.930997
v -124.336555 -47.312675 1.969243
v -123.844666 -21.750324 -47.003170
v -124.336555 -45.236328 -47.003170
v -124.336555 -45.236328 39.963451
v -123.844666 -21.750324 39.963451
v -152.639374 -27.202631 -8.731378
v -152.639374 -27.202631 0.074628
v -153.097855 -38.778336 -8.731378
v -153.097855 -38.778336 0.074628
v -152.639374 -27.202631 -33.355087
v -153.097855 -38.778336 -33.355087
v -153.097855 -38.778336 26.010366
v -152.639374 -27.202631 26.010366
v -162.397598 -28.280209 -5.933243
v -162.397598 -28.280209 -2.335510
v -162.856079 -36.927765 -5.933243
v -162.856079 -36.927765 -2.335510
v -162.397598 -28.280209 -15.993370
v -162.856079 -36.927765 -15.993370
v -162.856079 -36.927765 8.260653
v -162.397598 -28.280209 8.260653
v 28.721151 -37.651169 30.260473
v 28.721151 -27.066124 30.260473
v 28.721151 -37.651169 -35.935772
v 28.721151 -27.066124 -35.935772
v 32.928116 -37.651169 30.260473
v 32.928116 -27.066124 30.260473
v 32.928116 -37.651169 -35.935772
v 32.928116 -27.066124 -35.935772
v 34.450203 -28.295591 -33.222527
v 34.450203 -36.421700 -33.222527
v 34.450203 -36.421700 27.547228
v 34.450203 -28.295591 27.547228
v 32.839500 -28.295591 -33.222527
v 32.839500 -36.421700 -33.222527
v 32.839500 -36.421700 27.547228
v 32.839500 -28.295591 27.547228
v 30.063805 -27.206270 1.969243
v 30.063805 -27.206270 -10.930997
v -4.629861 -27.582619 -47.003170
v 28.016335 -27.206270 -40.699596
v -4.629861 -27.582619 39.963451
v 28.016335 -27.206270 34.648735
v -123.914490 -25.084333 -47.003170
v -123.914490 -25.084333 39.963451
v -152.704468 -28.845886 -33.355087
v -152.704468 -28.845886 26.010366
v -162.462677 -29.507793 -5.933243
v -162.462677 -29.507793 -2.335510
v -162.462677 -29.507793 -15.993370
v -162.462677 -29.507793 8.260653
v -4.953944 -43.056469 -47.003170
v -124.238571 -40.558186 -47.003170
v -153.006531 -36.472588 -33.355087
v -162.764755 -35.205273 -5.933243
v -162.764755 -35.205273 -15.993370
v 29.739723 -37.760033 1.969243
v 29.739723 -37.760033 -10.930997
v 27.692253 -37.760033 -40.699596
v -4.953944 -43.056469 39.963451
v 27.692253 -37.760033 34.648735
v -124.238571 -40.558186 39.963451
v -153.006531 -36.472588 26.010366
v -162.764755 -35.205273 -2.335510
v -162.764755 -35.205273 8.260653
v 27.887733 -40.950703 29.964872
v -5.051922 -48.032207 34.517845
v -4.560034 -23.762205 34.517845
v 28.379622 -24.932348 29.964870
v -124.336555 -45.533924 34.517845
v -123.844666 -21.263922 34.517845
v -153.097855 -38.778336 22.293068
v -152.639374 -27.202631 22.293068
v -162.856079 -36.927765 6.741933
v -162.397598 -28.280209 6.741933
v -162.462677 -29.507793 6.741933
v -162.764755 -35.205273 6.741933
v -4.560034 -23.675783 -40.914433
v -5.051922 -48.085087 -40.914429
v 27.939873 -40.950703 -35.674858
v 28.431763 -24.932348 -35.674858
v -123.844666 -21.177498 -40.914433
v -124.336555 -45.586803 -40.914429
v -152.639374 -27.202631 -29.198771
v -153.097855 -38.778336 -29.198771
v -162.397598 -28.280209 -14.295288
v -162.856079 -36.927765 -14.295288
v -162.462677 -29.507793 -14.295288
v -162.764755 -35.205273 -14.295288
vt 0.784358 0.788169
vt 0.783949 0.780399
vt 0.792663 0.747220
vt 0.792663 0.787784
vt 0.581160 0.790289
vt 0.572847 0.790308
vt 0.572847 0.749868
vt 0.581160 0.749849
vt 0.635804 0.783118
vt 0.627490 0.783159
vt 0.627490 0.749890
vt 0.635804 0.749849
vt 0.811748 0.713715
vt 0.812157 0.705934
vt 0.820462 0.706318
vt 0.820462 0.746937
vt 0.831526 0.847147
vt 0.823214 0.847147
vt 0.823214 0.839348
vt 0.831526 0.839348
vt 0.637476 0.749849
vt 0.645785 0.749849
vt 0.645785 0.772996
vt 0.637476 0.772997
vt 0.647744 0.757638
vt 0.656058 0.757664
vt 0.656076 0.776176
vt 0.647762 0.776151
vt 0.831526 0.870294
vt 0.838678 0.847146
vt 0.838678 0.870294
vt 0.647744 0.756557
vt 0.647744 0.766288
vt 0.823214 0.870294
vt 0.647762 0.749849
vt 0.656076 0.749874
vt 0.688965 0.776870
vt 0.688143 0.769118
vt 0.693020 0.768664
vt 0.693842 0.776416
vt 0.567148 0.758384
vt 0.567970 0.750642
vt 0.572847 0.751098
vt 0.572025 0.758839
vt 0.831526 0.874891
vt 0.823214 0.874890
vt 0.004901 0.750547
vt 0.004901 0.758340
vt 0.000000 0.758340
vt 0.000000 0.750547
vt 0.688143 0.768650
vt 0.679830 0.768635
vt 0.679830 0.749849
vt 0.688143 0.749864
vt 0.688965 0.750304
vt 0.693842 0.749849
vt 0.572847 0.777629
vt 0.567970 0.777174
vt 0.700410 0.749853
vt 0.710786 0.749849
vt 0.710786 0.762488
vt 0.700410 0.762492
vt 0.777223 0.788630
vt 0.776814 0.780859
vt 0.821253 0.863586
vt 0.821253 0.853854
vt 0.560044 0.757590
vt 0.560866 0.749849
vt 0.669454 0.769137
vt 0.669450 0.761357
vt 0.679827 0.761353
vt 0.679830 0.769133
vt 0.720945 0.765231
vt 0.715865 0.771390
vt 0.715865 0.756009
vt 0.720945 0.749849
vt 0.669454 0.749853
vt 0.679830 0.749849
vt 0.710786 0.749849
vt 0.715865 0.756011
vt 0.715865 0.771398
vt 0.710786 0.765235
vt 0.928562 0.833613
vt 0.928562 0.883919
vt 0.471048 0.794149
vt 0.472019 0.786415
vt 0.473606 0.787532
vt 0.478242 0.793991
vt 0.372795 0.849237
vt 0.371824 0.841501
vt 0.379018 0.841658
vt 0.374382 0.848119
vt 0.635803 0.772998
vt 0.635803 0.749850
vt 0.700410 0.772999
vt 0.693842 0.772996
vt 0.693842 0.749849
vt 0.700410 0.749852
vt 0.392608 0.870297
vt 0.387971 0.876758
vt 0.373493 0.875850
vt 0.361589 0.860643
vt 0.487195 0.758901
vt 0.491832 0.765360
vt 0.627490 0.749849
vt 0.627490 0.766892
vt 0.609327 0.766899
vt 0.609327 0.749856
vt 0.595463 0.749849
vt 0.595463 0.772996
vt 0.581160 0.769942
vt 0.581160 0.752899
vt 0.460811 0.774996
vt 0.472715 0.759792
vt 0.609327 0.749849
vt 0.609327 0.772996
vt 0.595463 0.769938
vt 0.595463 0.752895
vt 0.384229 0.134645
vt 0.519549 0.133836
vt 0.519549 0.597150
vt 0.384229 0.597960
vt 0.560044 0.749849
vt 0.560044 0.885840
vt 0.460811 0.749849
vt 0.460811 0.885884
vt 0.737677 0.705934
vt 0.762357 0.705934
vt 0.776814 0.768289
vt 0.723178 0.768289
vt 0.149962 0.000000
vt 0.203599 0.000001
vt 0.203622 0.133467
vt 0.149985 0.133466
vt 0.338948 0.133804
vt 0.319999 0.006835
vt 0.339473 0.007978
vt 0.361589 0.133860
vt 0.981922 0.883919
vt 0.981922 0.833613
vt 0.995194 0.833613
vt 0.995194 0.883919
vt 0.025317 0.133789
vt 0.149985 0.598556
vt 0.025317 0.598879
vt 0.742628 0.579869
vt 0.767908 0.705351
vt 0.754639 0.705206
vt 0.723178 0.579834
vt 0.981589 0.981425
vt 0.995394 0.980406
vt 0.995434 1.000000
vt 0.982162 1.000000
vt 0.047083 0.006627
vt 0.000000 0.133855
vt 0.026191 0.007973
vt 0.697860 0.134600
vt 0.676077 0.006613
vt 0.696969 0.007956
vt 0.723177 0.134755
vt 0.865937 0.000588
vt 0.840704 0.126108
vt 0.821253 0.126145
vt 0.852668 0.000734
vt 0.403161 0.006835
vt 0.361589 0.134780
vt 0.383686 0.007978
vt 0.573186 0.133832
vt 0.573186 0.597147
vt 0.937596 0.723286
vt 0.928768 0.724438
vt 0.928802 0.706172
vt 0.938261 0.706172
vt 0.905419 0.590508
vt 0.919281 0.590482
vt 0.895477 0.705241
vt 0.888642 0.705373
vt 0.527458 0.711592
vt 0.435079 0.711598
vt 0.564072 0.711589
vt 0.905039 0.125987
vt 0.918901 0.125961
vt 0.203622 0.598557
vt 0.723177 0.598070
vt 0.697860 0.597914
vt 0.361589 0.598950
vt 0.338948 0.598894
vt 0.723603 0.115169
vt 0.743054 0.115204
vt 0.957854 0.000000
vt 0.967448 0.000000
vt 0.961445 0.067740
vt 0.954274 0.067740
vt 0.074013 0.712188
vt 0.159112 0.712189
vt 0.170742 0.750546
vt 0.135974 0.750546
vt 0.288105 0.712191
vt 0.303561 0.712191
vt 0.229757 0.750547
vt 0.223443 0.750547
vt 0.666452 0.711582
vt 0.649171 0.711583
vt 0.195725 0.712190
vt 0.749215 0.000000
vt 0.758806 0.000185
vt 0.954274 0.121000
vt 0.954274 0.106970
vt 0.961445 0.106970
vt 0.961445 0.121000
vt 0.930553 0.074361
vt 0.925442 0.074361
vt 0.925442 0.067740
vt 0.930553 0.067740
vt 0.954274 0.156398
vt 0.961445 0.156398
vt 0.961445 0.162321
vt 0.954274 0.162321
vt 0.552442 0.749845
vt 0.537484 0.749846
vt 0.499741 0.749849
vt 0.926119 0.231501
vt 0.919281 0.231501
vt 0.925442 0.162320
vt 0.930553 0.162320
vt 0.594270 0.749842
vt 0.587210 0.749843
vt 0.185700 0.750547
vt 0.776814 0.747220
vt 0.776814 0.705952
vt 0.794284 0.705934
vt 0.794284 0.747202
vt 0.794284 0.788483
vt 0.794284 0.747222
vt 0.805568 0.752181
vt 0.805568 0.783857
vt 0.794284 0.705934
vt 0.811748 0.705955
vt 0.811748 0.747222
vt 0.976600 0.489640
vt 0.959129 0.489640
vt 0.959129 0.231502
vt 0.976600 0.231501
vt 0.982552 0.231501
vt 1.000000 0.231502
vt 1.000000 0.489641
vt 0.982552 0.489640
vt 0.925970 0.468479
vt 0.925970 0.705457
vt 0.919281 0.705457
vt 0.919281 0.468479
vt 0.953054 0.479063
vt 0.953054 0.242085
vt 0.976600 0.479055
vt 0.976600 0.242078
vt 0.816846 0.747222
vt 0.816846 0.788483
vt 0.805568 0.783858
vt 0.805568 0.752182
vt 0.919281 0.231501
vt 0.953054 0.231502
vt 0.953054 0.468479
vt 0.919281 0.468479
vt 0.662764 0.781529
vt 0.662764 0.749849
vt 0.669450 0.749857
vt 0.669450 0.781537
vt 0.662764 0.749849
vt 0.662764 0.781530
vt 0.656076 0.781537
vt 0.656076 0.749856
vt 0.925970 0.705457
vt 0.925970 0.468479
vt 0.932651 0.468480
vt 0.932651 0.705457
vt 0.957854 0.231501
vt 0.925442 0.156398
vt 0.930553 0.156398
vt 0.954274 0.074362
vt 0.925442 0.121000
vt 0.925442 0.106970
vt 0.930553 0.106970
vt 0.930553 0.121000
vt 0.821253 0.115343
vt 0.807391 0.115319
vt 0.790528 0.000796
vt 0.797363 0.000927
vt 0.919281 0.000000
vt 0.926119 0.000000
vt 0.820828 0.580009
vt 0.806966 0.579984
vt 0.841084 0.590629
vt 0.856921 0.705986
vt 0.981589 0.723287
vt 0.982162 0.706172
vt 0.919281 0.000000
vt 0.909825 0.000104
vt 0.928762 0.980406
vt 0.937596 0.981424
vt 0.938261 1.000000
vt 0.928802 1.000000
vt 0.821253 0.705934
vt 0.811797 0.705831
vt 0.938021 0.833613
vt 0.938021 0.883919
vt 0.995400 0.724438
vt 0.995434 0.706172
vt 0.821633 0.590665
vt 0.847330 0.706172
vt 0.961445 0.074362
vt 0.967448 0.231501
vt 0.419623 0.711599
vt 0.493427 0.749849
vt 0.361589 0.598095
vt 0.519561 0.000004
vt 0.000000 0.598945
vt 0.056732 0.712188
vt 0.128914 0.750546
vt 0.573197 0.000000
vn 0.0000 1.0000 0.0000
vn 0.0492 0.0000 0.9988
vn -0.2861 0.0000 -0.9582
vn 0.0000 -1.0000 0.0000
vn 1.0000 0.0000 0.0000
vn -1.0000 0.0000 0.0000
vn 0.1394 0.0000 -0.9902
vn 0.9903 -0.1390 0.0000
vn 0.0000 0.0000 -1.0000
vn -0.1394 0.0000 0.9902
vn -0.6109 -0.7917 0.0000
vn 0.0000 0.9644 0.2644
vn 0.0000 0.9644 -0.2644
vn 0.0000 0.0000 1.0000
vn 0.6109 0.7917 0.0000
vn 0.7274 0.6862 0.0000
vn -0.8638 -0.5038 0.0000
vn -0.6507 -0.7593 0.0000
vn -0.0799 0.1990 -0.9767
vn -0.4934 0.8698 0.0000
vn -0.9810 0.1938 0.0000
vn -0.0799 0.1990 0.9767
vn 0.7735 0.6338 0.0000
vn 0.0209 0.9958 0.0889
vn 0.0073 0.1832 0.9831
vn 0.0073 0.1832 -0.9831
vn -0.9335 0.3586 0.0000
vn 0.2474 -0.9689 0.0000
vn 0.2117 -0.9767 0.0348
vn 0.9995 -0.0307 0.0000
vn -0.0209 -0.9981 -0.0575
vn 0.1904 -0.0047 -0.9817
vn 0.9810 -0.1384 -0.1362
vn 0.2136 -0.9762 -0.0374
vn 0.0388 0.9979 -0.0526
vn 0.1614 -0.0040 0.9869
vn 0.0356 0.9982 0.0490
vn 0.0209 0.9998 0.0000
vn 0.9915 0.0685 0.1102
vn -0.4376 0.0119 0.8991
vn -0.2601 0.9642 0.0512
vn -0.2937 0.9559 0.0000
vn -0.0209 -0.9998 0.0000
vn 0.0208 0.9954 -0.0936
vn -0.0209 -0.9983 0.0546
vn -0.8695 0.0394 -0.4923
vn -0.1863 -0.9825 0.0000
vn -0.2182 0.9744 -0.0545
vn -0.2845 -0.9587 0.0000
vn -0.2374 -0.9709 0.0315
vn -0.2650 -0.9637 -0.0330
vn -0.4269 0.0116 -0.9042
vn -0.9986 0.0530 0.0000
vn -0.9986 0.0529 0.0000
vn -0.1098 0.9940 0.0000
vn -0.8764 0.0397 0.4799
vn 0.8721 0.0000 0.4893
vn 0.6284 -0.7779 0.0000
vn 0.6284 0.7779 0.0000
vn 0.8721 0.0000 -0.4893
vn -0.8753 0.0397 0.4819
vn -0.4298 0.0117 -0.9028
vn -0.8719 0.0395 -0.4881
vn -0.4362 0.0118 0.8998
vn 0.9810 -0.0150 0.1934
vn 0.1607 -0.0040 0.9870
vn 0.9927 0.0558 -0.1073
vn 0.1896 -0.0047 -0.9819
vn 0.9791 -0.1469 0.1409
vn -0.4347 0.0118 0.9005
vn -0.8741 0.0396 0.4841
vn -0.4284 0.0116 -0.9035
vn -0.8708 0.0395 -0.4901
vn 0.1610 -0.0040 0.9869
vn 0.9838 -0.0151 -0.1786
vn 0.1900 -0.0047 -0.9818
vn 0.9884 -0.1441 0.0490
vn -0.2639 -0.9640 0.0313
vn -0.2164 0.9749 0.0518
vn 0.9964 0.0651 0.0547
vn 0.0806 0.9955 0.0501
vn 0.2315 -0.9722 0.0353
vn 0.9967 0.0533 -0.0608
vn -0.2385 -0.9706 -0.0332
vn -0.2618 0.9636 -0.0539
vn 0.0826 0.9951 -0.0539
vn 0.2326 -0.9718 -0.0379
vn 0.9892 -0.1362 -0.0544
usemtl Material
s off
f 1/1/1 5/2/1 7/3/1 3/4/1
f 4/5/2 3/6/2 7/7/2 8/8/2
f 8/9/3 7/10/3 5/11/3 6/12/3
f 6/13/4 2/14/4 4/15/4 8/16/4
f 2/17/5 1/18/5 3/19/5 4/20/5
f 6/21/6 5/22/6 12/23/6 10/24/6
f 16/25/7 14/26/7 20/27/7 19/28/7
f 9/29/8 2/17/8 29/30/8 31/31/8
f 12/23/6 5/22/6 21/32/6 23/33/6
f 1/18/5 2/17/5 9/29/5 11/34/5
f 14/26/9 16/25/9 15/35/9 13/36/9
f 9/37/4 10/38/4 14/39/4 13/40/4
f 12/41/1 11/42/1 15/43/1 16/44/1
f 11/34/5 9/29/5 13/45/5 15/46/5
f 18/47/6 17/48/6 19/49/6 20/50/6
f 10/51/10 12/52/10 17/53/10 18/54/10
f 14/39/4 10/38/4 18/55/4 20/56/4
f 12/41/1 16/44/1 19/57/1 17/58/1
f 23/59/11 21/60/11 25/61/11 27/62/11
f 5/2/12 1/1/12 22/63/12 21/64/12
f 1/18/5 11/34/5 24/65/5 22/66/5
f 11/42/13 12/41/13 23/67/13 24/68/13
f 25/69/1 26/70/1 28/71/1 27/72/1
f 21/73/14 22/74/14 26/75/14 25/76/14
f 22/77/15 24/78/15 28/71/15 26/70/15
f 24/79/9 23/80/9 27/81/9 28/82/9
f 31/31/16 29/30/16 42/83/16 41/84/16
f 2/85/14 6/86/14 30/87/14 29/88/14
f 10/89/9 9/90/9 31/91/9 32/92/9
f 6/21/17 10/24/17 32/93/17 30/94/17
f 33/95/18 34/96/18 36/97/18 35/98/18
f 32/92/9 31/91/9 35/99/9 36/100/9
f 32/92/19 36/100/19 39/101/19 37/102/19
f 29/88/14 30/87/14 34/103/14 33/104/14
f 38/105/20 37/106/20 39/107/20 40/108/20
f 36/109/21 34/110/21 40/111/21 39/112/21
f 34/103/22 30/87/22 38/113/22 40/114/22
f 30/115/23 32/116/23 37/117/23 38/118/23
f 127/119/24 44/120/24 58/121/24 130/122/24
f 29/88/25 33/104/25 44/123/25 42/124/25
f 35/99/26 31/91/26 41/125/26 43/126/26
f 33/127/27 35/128/27 43/129/27 44/130/27
f 45/131/28 46/132/28 48/133/28 47/134/28
f 126/135/29 125/136/29 55/137/29 56/138/29
f 117/139/30 116/140/30 46/141/30 45/142/30
f 138/143/31 47/134/31 59/144/31 142/145/31
f 111/146/32 118/147/32 52/148/32 51/149/32
f 83/150/33 139/151/33 52/152/33 118/153/33
f 139/154/34 138/143/34 51/155/34 52/156/34
f 137/157/35 140/158/35 50/159/35 49/160/35
f 120/161/36 119/162/36 56/163/36 55/164/36
f 128/165/37 127/119/37 54/166/37 53/167/37
f 44/120/38 43/168/38 57/169/38 58/121/38
f 82/170/39 128/171/39 53/172/39 102/173/39
f 104/174/40 64/175/40 72/176/40 106/177/40
f 130/122/41 58/121/41 66/178/41 132/179/41
f 58/121/42 57/169/42 65/180/42 66/178/42
f 101/181/14 54/182/14 64/175/14 104/174/14
f 47/134/43 48/133/43 60/183/43 59/144/43
f 137/157/44 49/160/44 61/184/44 141/185/44
f 126/135/45 56/138/45 63/186/45 129/187/45
f 111/146/9 51/149/9 62/188/9 112/189/9
f 113/190/46 70/191/46 78/192/46 115/193/46
f 144/194/47 67/195/47 75/196/47 146/197/47
f 131/198/47 71/199/47 79/200/47 133/201/47
f 141/185/48 61/184/48 69/202/48 143/203/48
f 59/144/49 60/183/49 68/204/49 67/195/49
f 129/187/50 63/186/50 71/199/50 131/198/50
f 142/145/51 59/144/51 67/195/51 144/194/51
f 112/189/52 62/188/52 70/205/52 113/206/52
f 123/207/53 114/208/53 75/209/53 76/210/53
f 147/211/54 145/212/54 77/213/54 109/214/54
f 136/215/54 133/216/54 79/217/54 124/218/54
f 66/178/55 65/180/55 73/219/55 74/220/55
f 132/179/55 66/178/55 74/220/55 134/221/55
f 106/222/56 72/223/56 80/224/56 110/225/56
f 143/203/55 69/202/55 77/226/55 145/227/55
f 67/195/47 68/204/47 76/228/47 75/196/47
f 83/229/9 84/230/9 88/231/9 87/232/9
f 86/233/57 85/234/57 91/235/57 92/236/57
f 85/234/14 86/237/14 82/238/14 81/239/14
f 83/240/4 87/241/4 85/242/4 81/243/4
f 88/244/1 84/245/1 82/246/1 86/247/1
f 89/248/4 92/249/4 96/250/4 93/251/4
f 85/242/58 87/241/58 90/252/58 91/253/58
f 88/244/59 86/247/59 92/254/59 89/255/59
f 87/256/60 88/257/60 89/258/60 90/259/60
f 94/260/5 93/261/5 96/262/5 95/263/5
f 90/264/14 89/265/14 93/266/14 94/267/14
f 92/268/9 91/269/9 95/270/9 96/271/9
f 91/272/1 90/273/1 94/274/1 95/275/1
f 122/276/61 106/222/61 110/225/61 124/218/61
f 134/277/54 135/278/54 110/225/54 80/224/54
f 148/279/54 147/211/54 109/214/54 115/193/54
f 74/280/54 73/281/54 107/282/54 108/283/54
f 61/284/62 103/285/62 105/286/62 69/287/62
f 69/288/63 105/289/63 109/214/63 77/213/63
f 49/290/9 99/291/9 103/285/9 61/284/9
f 119/162/14 101/181/14 104/174/14 121/292/14
f 121/292/64 104/174/64 106/177/64 122/293/64
f 81/294/65 82/170/65 102/173/65 120/295/65
f 53/296/66 54/182/66 101/181/66 102/297/66
f 140/298/67 84/299/67 100/300/67 50/301/67
f 49/290/68 50/302/68 100/303/68 99/291/68
f 41/84/30 42/83/30 97/304/30 98/305/30
f 125/306/69 81/294/69 120/295/69 55/307/69
f 63/308/70 121/292/70 122/293/70 71/309/70
f 56/163/14 119/162/14 121/292/14 63/308/14
f 146/310/54 148/279/54 115/193/54 78/192/54
f 71/311/71 122/276/71 124/218/71 79/217/71
f 135/278/54 136/215/54 124/218/54 110/225/54
f 108/283/54 107/282/54 114/208/54 123/207/54
f 103/285/72 112/189/72 113/206/72 105/286/72
f 105/289/73 113/190/73 115/193/73 109/214/73
f 99/291/9 111/146/9 112/189/9 103/285/9
f 102/297/74 101/181/74 119/162/74 120/161/74
f 84/299/75 83/150/75 118/153/75 100/300/75
f 99/291/76 100/303/76 118/147/76 111/146/76
f 108/283/54 123/207/54 136/215/54 135/278/54
f 46/141/77 116/140/77 81/294/77 125/306/77
f 74/280/54 108/283/54 135/278/54 134/277/54
f 72/312/55 132/179/55 134/221/55 80/313/55
f 123/207/54 76/210/54 133/216/54 136/215/54
f 60/183/78 129/187/78 131/198/78 68/204/78
f 68/204/47 131/198/47 133/201/47 76/228/47
f 48/133/45 126/135/45 129/187/45 60/183/45
f 64/314/79 130/122/79 132/179/79 72/312/79
f 97/304/80 42/83/80 128/171/80 82/170/80
f 42/315/81 44/120/81 127/119/81 128/165/81
f 48/133/82 46/132/82 125/136/82 126/135/82
f 54/166/24 127/119/24 130/122/24 64/314/24
f 75/209/54 114/208/54 148/279/54 146/310/54
f 41/84/83 98/305/83 84/299/83 140/298/83
f 114/208/54 107/282/54 147/211/54 148/279/54
f 65/180/55 143/203/55 145/227/55 73/219/55
f 107/282/54 73/281/54 145/212/54 147/211/54
f 62/316/84 142/145/84 144/194/84 70/317/84
f 57/169/85 141/185/85 143/203/85 65/180/85
f 70/317/47 144/194/47 146/197/47 78/318/47
f 43/168/44 137/157/44 141/185/44 57/169/44
f 43/168/86 41/319/86 140/158/86 137/157/86
f 45/131/87 47/134/87 138/143/87 139/154/87
f 117/139/88 45/142/88 139/151/88 83/150/88
f 51/155/31 138/143/31 142/145/31 62/316/31
