# Blender v2.90.1 OBJ File: 'TerrainContainerb.blend'
# www.blender.org
mtllib TerrainContainerb.mtl
o Cube
v 90.540306 15.238082 -131.930496
v 90.540306 -34.782768 -131.930496
v 90.540306 15.238082 131.930496
v 90.540306 -34.782768 131.930496
v -90.540306 15.238082 -131.930496
v -90.540306 -34.782768 -131.930496
v -90.540306 15.238082 131.930496
v -90.540306 -34.782768 131.930496
v 65.289543 18.579287 102.972664
v -65.289543 18.579287 102.972664
v 65.289543 18.579287 -102.972664
v -65.289543 18.579287 -102.972664
v 52.567402 -26.816338 98.497711
v -52.567402 -26.816338 98.497711
v 52.567402 -26.816338 -98.497711
v -52.567402 -26.816338 -98.497711
vt 0.000000 0.038942
vt 0.146786 0.000000
vt 0.170571 0.038942
vt 0.170571 0.038942
vt 0.341142 0.592399
vt 0.170571 0.592399
vt 0.489625 0.548679
vt 0.341142 0.000000
vt 0.489625 0.000000
vt 0.638107 0.502585
vt 0.786590 0.661911
vt 0.638107 0.661911
vt 0.638107 0.548679
vt 0.489625 0.000000
vt 0.638107 0.000000
vt 0.170571 0.592399
vt 0.000000 0.592399
vt 0.884108 1.000000
vt 0.997482 0.500000
vt 1.000000 1.000000
vt 0.317357 0.000000
vt 0.341142 0.038942
vt 0.357438 0.589408
vt 0.341142 0.548679
vt 0.505920 0.589408
vt 0.489625 0.548679
vt 0.341142 0.692954
vt 0.440175 0.589408
vt 0.440175 0.692954
vt 0.761108 0.000000
vt 0.650091 0.502585
vt 0.638107 0.000000
vt 0.884108 0.000000
vt 0.773092 0.502585
vt 0.761108 0.000000
vt 0.884108 0.500000
vt 0.997482 0.000000
vt 1.000000 0.500000
vt 0.023785 0.000000
vt 0.786590 0.502585
vt 0.886627 0.500000
vt 0.194356 0.000000
vt 0.473329 0.589408
vt 0.621812 0.589408
vt 0.341142 0.589408
vt 0.749124 0.502585
vt 0.872125 0.502585
vt 0.886626 0.000000
vn 0.0000 0.9934 -0.1146
vn 0.0000 0.0000 1.0000
vn -1.0000 0.0000 0.0000
vn 0.0000 -1.0000 0.0000
vn 1.0000 0.0000 0.0000
vn 0.0000 0.0000 -1.0000
vn 0.9629 0.2699 0.0000
vn 0.0000 0.9934 0.1146
vn -0.1312 0.9914 0.0000
vn 0.1312 0.9914 0.0000
vn 0.0000 1.0000 0.0000
vn 0.0000 0.0981 -0.9952
vn 0.0000 0.0981 0.9952
vn -0.9629 0.2699 0.0000
usemtl Material
s off
f 5/1/1 11/2/1 1/3/1
f 3/4/2 8/5/2 4/6/2
f 7/7/3 6/8/3 8/9/3
f 2/10/4 8/11/4 6/12/4
f 1/13/5 4/14/5 2/15/5
f 5/1/6 2/16/6 6/17/6
f 10/18/7 16/19/7 12/20/7
f 3/4/8 10/21/8 7/22/8
f 7/7/9 12/23/9 5/24/9
f 1/13/10 9/25/10 3/26/10
f 16/27/11 13/28/11 15/29/11
f 9/30/12 14/31/12 10/32/12
f 12/33/13 15/34/13 11/35/13
f 11/36/14 13/37/14 9/38/14
f 5/1/1 12/39/1 11/2/1
f 3/4/2 7/22/2 8/5/2
f 7/7/3 5/24/3 6/8/3
f 2/10/4 4/40/4 8/11/4
f 1/13/5 3/26/5 4/14/5
f 5/1/6 1/3/6 2/16/6
f 10/18/7 14/41/7 16/19/7
f 3/4/8 9/42/8 10/21/8
f 7/7/9 10/43/9 12/23/9
f 1/13/10 11/44/10 9/25/10
f 16/27/11 14/45/11 13/28/11
f 9/30/12 13/46/12 14/31/12
f 12/33/13 16/47/13 15/34/13
f 11/36/14 15/48/14 13/37/14
